<svg xmlns="http://www.w3.org/2000/svg" width="284" height="192" viewBox="0 0 284 192" fill="none"><g opacity="0.5"><path d="M278.179 191.679C280.76 191.679 282.852 189.587 282.852 187.006C282.852 184.425 280.76 182.333 278.179 182.333C275.598 182.333 273.506 184.425 273.506 187.006C273.506 189.587 275.598 191.679 278.179 191.679Z" fill="white"></path><path d="M280.553 147.173C282.378 145.348 282.378 142.389 280.553 140.564C278.728 138.739 275.769 138.739 273.944 140.564C272.119 142.389 272.119 145.348 273.944 147.173C275.769 148.998 278.728 148.998 280.553 147.173Z" fill="white"></path><path d="M282.457 101.46C283.05 98.9477 281.495 96.4306 278.983 95.8375C276.471 95.2444 273.954 96.7998 273.361 99.3117C272.768 101.823 274.323 104.341 276.835 104.934C279.347 105.527 281.864 103.971 282.457 101.46Z" fill="white"></path><path d="M278.179 55.5802C280.76 55.5802 282.852 53.488 282.852 50.907C282.852 48.3261 280.76 46.2339 278.179 46.2339C275.598 46.2339 273.506 48.3261 273.506 50.907C273.506 53.488 275.598 55.5802 278.179 55.5802Z" fill="white"></path><path d="M280.536 11.0817C282.361 9.25672 282.361 6.29784 280.536 4.47286C278.711 2.64788 275.752 2.64788 273.927 4.47286C272.102 6.29784 272.102 9.25672 273.927 11.0817C275.752 12.9067 278.711 12.9067 280.536 11.0817Z" fill="white"></path><path d="M224.055 191.679C226.636 191.679 228.728 189.587 228.728 187.006C228.728 184.425 226.636 182.333 224.055 182.333C221.474 182.333 219.382 184.425 219.382 187.006C219.382 189.587 221.474 191.679 224.055 191.679Z" fill="white"></path><path d="M226.429 147.173C228.254 145.348 228.254 142.389 226.429 140.564C224.604 138.739 221.645 138.739 219.82 140.564C217.995 142.389 217.995 145.348 219.82 147.173C221.645 148.998 224.604 148.998 226.429 147.173Z" fill="white"></path><path d="M228.333 101.46C228.926 98.9477 227.371 96.4306 224.859 95.8375C222.347 95.2444 219.83 96.7998 219.237 99.3117C218.644 101.823 220.199 104.341 222.711 104.934C225.223 105.527 227.74 103.971 228.333 101.46Z" fill="white"></path><path d="M224.055 55.5802C226.636 55.5802 228.728 53.488 228.728 50.907C228.728 48.3261 226.636 46.2339 224.055 46.2339C221.474 46.2339 219.382 48.3261 219.382 50.907C219.382 53.488 221.474 55.5802 224.055 55.5802Z" fill="white"></path><path d="M226.412 11.0817C228.237 9.25672 228.237 6.29784 226.412 4.47286C224.587 2.64788 221.628 2.64788 219.803 4.47286C217.978 6.29784 217.978 9.25672 219.803 11.0817C221.628 12.9067 224.587 12.9067 226.412 11.0817Z" fill="white"></path><path d="M169.93 191.679C172.511 191.679 174.603 189.587 174.603 187.006C174.603 184.425 172.511 182.333 169.93 182.333C167.349 182.333 165.257 184.425 165.257 187.006C165.257 189.587 167.349 191.679 169.93 191.679Z" fill="white"></path><path d="M172.304 147.173C174.129 145.348 174.129 142.389 172.304 140.564C170.479 138.739 167.52 138.739 165.695 140.564C163.87 142.389 163.87 145.348 165.695 147.173C167.52 148.998 170.479 148.998 172.304 147.173Z" fill="white"></path><path d="M174.208 101.46C174.801 98.9477 173.246 96.4306 170.734 95.8375C168.222 95.2444 165.705 96.7998 165.112 99.3117C164.519 101.823 166.074 104.341 168.586 104.934C171.098 105.527 173.615 103.971 174.208 101.46Z" fill="white"></path><path d="M169.93 55.5802C172.511 55.5802 174.603 53.488 174.603 50.907C174.603 48.3261 172.511 46.2339 169.93 46.2339C167.349 46.2339 165.257 48.3261 165.257 50.907C165.257 53.488 167.349 55.5802 169.93 55.5802Z" fill="white"></path><path d="M172.287 11.0817C174.112 9.25672 174.112 6.29784 172.287 4.47286C170.462 2.64788 167.503 2.64788 165.678 4.47286C163.853 6.29784 163.853 9.25672 165.678 11.0817C167.503 12.9067 170.462 12.9067 172.287 11.0817Z" fill="white"></path><path d="M115.805 191.679C118.386 191.679 120.478 189.587 120.478 187.006C120.478 184.425 118.386 182.333 115.805 182.333C113.224 182.333 111.132 184.425 111.132 187.006C111.132 189.587 113.224 191.679 115.805 191.679Z" fill="white"></path><path d="M118.179 147.173C120.004 145.348 120.004 142.389 118.179 140.564C116.354 138.739 113.395 138.739 111.57 140.564C109.745 142.389 109.745 145.348 111.57 147.173C113.395 148.998 116.354 148.998 118.179 147.173Z" fill="white"></path><path d="M120.083 101.46C120.676 98.9477 119.121 96.4306 116.609 95.8375C114.097 95.2444 111.58 96.7998 110.987 99.3117C110.394 101.823 111.949 104.341 114.461 104.934C116.973 105.527 119.49 103.971 120.083 101.46Z" fill="white"></path><path d="M115.805 55.5802C118.386 55.5802 120.478 53.488 120.478 50.907C120.478 48.3261 118.386 46.2339 115.805 46.2339C113.224 46.2339 111.132 48.3261 111.132 50.907C111.132 53.488 113.224 55.5802 115.805 55.5802Z" fill="white"></path><path d="M118.162 11.0817C119.987 9.25672 119.987 6.29784 118.162 4.47286C116.337 2.64788 113.378 2.64788 111.553 4.47286C109.728 6.29784 109.728 9.25672 111.553 11.0817C113.378 12.9067 116.337 12.9067 118.162 11.0817Z" fill="white"></path><path d="M61.681 191.679C64.2619 191.679 66.3541 189.587 66.3541 187.006C66.3541 184.425 64.2619 182.333 61.681 182.333C59.1001 182.333 57.0078 184.425 57.0078 187.006C57.0078 189.587 59.1001 191.679 61.681 191.679Z" fill="white"></path><path d="M64.0549 147.173C65.8799 145.348 65.8799 142.389 64.0549 140.564C62.2299 138.739 59.271 138.739 57.446 140.564C55.621 142.389 55.621 145.348 57.446 147.173C59.271 148.998 62.2299 148.998 64.0549 147.173Z" fill="white"></path><path d="M65.9592 101.46C66.5523 98.9477 64.9969 96.4306 62.485 95.8375C59.9732 95.2444 57.4561 96.7998 56.863 99.3117C56.2699 101.823 57.8253 104.341 60.3372 104.934C62.849 105.527 65.3661 103.971 65.9592 101.46Z" fill="white"></path><path d="M61.681 55.5802C64.2619 55.5802 66.3541 53.488 66.3541 50.907C66.3541 48.3261 64.2619 46.2339 61.681 46.2339C59.1001 46.2339 57.0078 48.3261 57.0078 50.907C57.0078 53.488 59.1001 55.5802 61.681 55.5802Z" fill="white"></path><path d="M64.0383 11.0817C65.8633 9.25672 65.8633 6.29784 64.0383 4.47286C62.2133 2.64788 59.2544 2.64788 57.4294 4.47286C55.6044 6.29784 55.6044 9.25672 57.4294 11.0817C59.2544 12.9067 62.2133 12.9067 64.0383 11.0817Z" fill="white"></path><path d="M7.55597 190.511C10.1369 190.511 12.2291 188.419 12.2291 185.838C12.2291 183.257 10.1369 181.165 7.55597 181.165C4.97506 181.165 2.88281 183.257 2.88281 185.838C2.88281 188.419 4.97506 190.511 7.55597 190.511Z" fill="white"></path><path d="M9.92987 146.004C11.7549 144.179 11.7549 141.22 9.92987 139.395C8.10489 137.57 5.14601 137.57 3.32103 139.395C1.49604 141.22 1.49604 144.179 3.32103 146.004C5.14601 147.829 8.10489 147.829 9.92987 146.004Z" fill="white"></path><path d="M11.8342 100.291C12.4273 97.7792 10.8719 95.2622 8.36001 94.669C5.84817 94.0759 3.33111 95.6314 2.73799 98.1432C2.14488 100.655 3.70031 103.172 6.21215 103.765C8.72399 104.358 11.2411 102.803 11.8342 100.291Z" fill="white"></path><path d="M7.55597 54.4118C10.1369 54.4118 12.2291 52.3195 12.2291 49.7386C12.2291 47.1577 10.1369 45.0654 7.55597 45.0654C4.97506 45.0654 2.88281 47.1577 2.88281 49.7386C2.88281 52.3195 4.97506 54.4118 7.55597 54.4118Z" fill="white"></path><path d="M9.91327 9.91325C11.7383 8.08827 11.7383 5.12938 9.91327 3.3044C8.08829 1.47942 5.12941 1.47942 3.30442 3.3044C1.47944 5.12938 1.47944 8.08827 3.30442 9.91325C5.12941 11.7382 8.08829 11.7382 9.91327 9.91325Z" fill="white"></path></g></svg>